<?xml version="1.0" encoding="utf-8"?>
<!-- Svg Vector Icons : http://www.sfont.cn -->
<!DOCTYPE svg PUBLIC "-//W3C//DTD SVG 1.1//EN" "http://www.w3.org/Graphics/SVG/1.1/DTD/svg11.dtd">
<svg version="1.1" xmlns="http://www.w3.org/2000/svg" xmlns:xlink="http://www.w3.org/1999/xlink" x="0px" y="0px" viewBox="0 0 1000 1000" enable-background="new 0 0 1000 1000" xml:space="preserve">
<metadata> Svg Vector Icons : http://www.sfont.cn </metadata>
<g><path d="M609.5,383.3c-33.9,33.9-30.4,153.6-30.7,153.6c-0.3,0.1,119.6,3.2,153.6-30.8c33.9-33.9,30.7-153.6,30.7-153.6S643.4,349.4,609.5,383.3z"/><path d="M990,11.3C935.1,83,854,119.1,817.1,132.6C731.9,59.3,621.2,14.7,500,14.7c-121.2,0-231.9,44.6-317.1,117.9C146,119.1,64.9,83.1,10,11.3C10.7,136.2,72.1,216,91.1,237.8C41.9,313.9,13,404.4,13,501.7c0,268.9,218,487,487,487s487-218,487-487c0-97.4-28.9-187.8-78.1-263.9C927.9,216,989.3,136.3,990,11.3z M500,912.7c-226.6,0-411-184.4-411-411C89,275.1,273.4,90.7,500,90.7s411,184.4,411,411C911,728.3,726.6,912.7,500,912.7z"/><path d="M421.2,536.9c-0.2,0,3.2-119.7-30.7-153.6c-33.9-33.9-153.6-30.7-153.6-30.7s-3.2,119.7,30.7,153.6C301.5,540.2,421.4,537,421.2,536.9z"/><path d="M641.6,619.6c-43.3,0-96.5,9.3-141.6,9.3c-44,0-95.8-8.2-138.5-8.2c-48.4,0-85.1,10.5-85.1,55.6c0,53.8,119.4,125.9,223.6,125.9s223.6-70,223.6-125.9C723.6,630.5,688.4,619.6,641.6,619.6z M614,681.6V711c-21.4,11.3-47.9,21.2-76,26.4v-49.3c13.4-1,26.8-2.2,40-3.5C590.6,683.5,602.5,682.4,614,681.6z M361.5,681.5c7.6,0,16,0.5,24.5,1v27.8c-17.6-9.4-31.8-19.6-40.6-28.2C349.6,681.8,355,681.5,361.5,681.5z M424,727v-41.7c0.2,0,0.3,0,0.5,0c24.9,2.2,50.7,4.3,75.5,4.3v51.7C473.7,741.4,447.6,735.5,424,727z M652,685.2v-4.4c1.4,0.1,3.4,0.1,4.6,0.2C655.4,682.3,653.6,683.8,652,685.2z"/></g>
</svg>